PathFileType	4	(X/Y/Z)	C:\Users\Basilio\Documents\Thesis Gigler\squatting_fais\c3dfiles\044\SJ_pre3\markers_experimental.trc
DataRate	CameraRate	NumFrames	NumMarkers	Units	OrigDataRate	OrigDataStartFrame	OrigNumFrames
200.000000	200.000000	4	63	mm	200.000000	178	1427
Frame#	Time	FHD			LBHD			RBHD			C7			T10			CLAV			LSHO			LUUPA			LMUPA			LDUPA			LLEP			LMEP			LRAD			LUL			LRFIN			RSHO			RUPA1			RMUPA			RDUPA			RLEP			RMEP			RRAD			RUL			RUFIN			RASI			USACR			LSACR			RSACR			LTHI1			LTHI2			LTHI3			LTHI4			LLFC			LMFC			LTIB1			LTIB2			LTIB3			LTIB4			LLMAL			LMMAL			LHEE			LMT1			LMT2			LMT5			RTHI			RTHI2			RTHI3			RTHI4			RLFC			RMFC			RTIB1			RTIB2			RTIB3			RTIB4			RLMAL			RMMAL			RHEE			RMT1			RMT2			RMT5			LASI			*61			*62			
		X1	Y1	Z1	X2	Y2	Z2	X3	Y3	Z3	X4	Y4	Z4	X5	Y5	Z5	X6	Y6	Z6	X7	Y7	Z7	X8	Y8	Z8	X9	Y9	Z9	X10	Y10	Z10	X11	Y11	Z11	X12	Y12	Z12	X13	Y13	Z13	X14	Y14	Z14	X15	Y15	Z15	X16	Y16	Z16	X17	Y17	Z17	X18	Y18	Z18	X19	Y19	Z19	X20	Y20	Z20	X21	Y21	Z21	X22	Y22	Z22	X23	Y23	Z23	X24	Y24	Z24	X25	Y25	Z25	X26	Y26	Z26	X27	Y27	Z27	X28	Y28	Z28	X29	Y29	Z29	X30	Y30	Z30	X31	Y31	Z31	X32	Y32	Z32	X33	Y33	Z33	X34	Y34	Z34	X35	Y35	Z35	X36	Y36	Z36	X37	Y37	Z37	X38	Y38	Z38	X39	Y39	Z39	X40	Y40	Z40	X41	Y41	Z41	X42	Y42	Z42	X43	Y43	Z43	X44	Y44	Z44	X45	Y45	Z45	X46	Y46	Z46	X47	Y47	Z47	X48	Y48	Z48	X49	Y49	Z49	X50	Y50	Z50	X51	Y51	Z51	X52	Y52	Z52	X53	Y53	Z53	X54	Y54	Z54	X55	Y55	Z55	X56	Y56	Z56	X57	Y57	Z57	X58	Y58	Z58	X59	Y59	Z59	X60	Y60	Z60	X61	Y61	Z61	X62	Y62	Z62	X63	Y63	Z63	

179	0.89	-157.7510528564453	1761.491455078125	-934.6296386718752	-297.9026489257813	1723.212890625	-996.6284179687502	-323.6777343750001	1708.904174804688	-832.3240966796877	-360.2444458007813	1538.190551757813	-929.1784667968752	-391.0568237304689	1234.832641601563	-933.7358398437502	-224.3940429687501	1489.236083984375	-923.2583618164065	-259.6609802246094	1534.727416992188	-1106.00341796875	-337.9382629394532	1370.777221679688	-1257.283203125	-305.3744201660157	1332.419921875	-1254.03564453125	-349.8543395996094	1311.831176757813	-1291.528564453125	-348.3538208007813	1253.196166992188	-1308.532470703125	-415.8013610839845	1242.550903320313	-1256.40966796875	-282.1071777343751	1032.729370117188	-1143.09912109375	-248.8680572509766	1013.947631835938	-1200.872924804688	-230.9005889892579	1010.46240234375	-1099.69921875	-287.4069519042969	1509.27490234375	-729.8970336914064	-375.6351928710938	1347.369384765625	-598.9865722656251	-343.1221008300782	1308.384521484375	-596.5258789062501	-387.395721435547	1287.588745117188	-563.0677490234376	-382.7292175292969	1226.311767578125	-545.3566894531251	-448.9682922363282	1211.91015625	-601.3409423828126	-301.0765686035157	1018.891479492188	-712.1842041015626	-281.7372741699219	988.1494140625002	-648.1260986328126	-238.6698913574219	1001.911071777344	-749.1727294921876	-206.5297088623047	1008.199829101563	-819.5574951171877	-373.2268371582032	1081.1298828125	-924.9808349609377	-380.1551208496094	1049.70166015625	-952.5045166015627	-378.3414916992188	1051.218017578125	-895.9067382812502	-321.2737121582032	806.7637939453127	-1122.923461914063	-294.7659912109376	726.6333007812501	-1124.156860351563	-247.4067382812501	724.1516113281251	-1114.823120117188	-327.9183654785157	676.3179321289064	-1113.815307617188	-329.2653198242188	515.5827636718751	-1105.838745117188	-319.6541442871094	501.8613281250001	-985.4212646484377	-309.2757873535157	336.1667785644532	-1047.904663085938	-336.6034240722657	295.0853271484376	-1121.983764648438	-305.9223327636719	291.1629028320313	-1086.584716796875	-319.9513854980469	211.1454467773438	-1062.351318359375	-371.9627990722657	94.66717529296876	-1116.363037109375	-350.0902099609376	99.05556488037112	-1031.84619140625	-428.028289794922	47.30258560180665	-1069.1142578125	-211.7706604003907	60.76148605346681	-1055.260498046875	-214.3148193359376	61.23479461669923	-1101.818969726563	-249.4644165039063	38.9157829284668	-1148.448120117188	-320.0358276367188	754.1638793945314	-742.6737670898439	-282.3386535644532	698.5517578125001	-734.5487060546876	-249.1699981689454	699.0900878906251	-739.5375976562501	-309.8865051269532	619.4769287109376	-748.8804931640626	-317.7226562500001	505.144744873047	-753.0162963867189	-317.9747924804688	492.0964660644532	-876.0554199218752	-281.9591979980469	373.8655700683594	-769.0389404296877	-357.5726013183594	309.5614624023438	-720.7601318359376	-315.9374389648438	299.6621704101563	-736.5144042968751	-308.6894836425782	247.1228179931641	-758.6278686523439	-382.7685852050782	95.88088226318361	-737.2247924804689	-358.7399291992188	99.7002868652344	-818.793640136719	-434.4751892089845	48.89831924438478	-782.0512695312502	-223.6505889892579	62.93154907226564	-788.025085449219	-217.9871673583985	61.23364639282228	-749.8533325195314	-256.7281188964844	39.94377136230469	-698.9579467773439	-204.7847137451172	1029.562866210938	-1039.353271484375	nan	nan	nan	nan	nan	nan	
180	0.895	-157.7000427246094	1761.492431640625	-934.4795532226565	-297.8747253417969	1723.213012695313	-996.631042480469	-323.7909851074219	1708.905639648438	-832.3538208007815	-360.1582641601563	1538.150756835938	-929.1478271484377	-390.9778442382814	1234.807861328125	-933.6668701171877	-224.3784637451172	1489.238037109375	-923.2409667968752	-259.6287841796876	1534.713989257813	-1105.984008789063	-337.9873046875001	1370.96875	-1257.2353515625	-305.2644958496094	1332.352661132813	-1254.050659179688	-349.7992553710938	1311.804077148438	-1291.47900390625	-348.2735595703126	1253.176147460938	-1308.464111328125	-415.6993713378907	1242.452880859375	-1256.338256835938	-282.0262145996094	1032.682983398438	-1143.0478515625	-248.8519134521485	1013.903381347656	-1200.816040039063	-230.9276275634766	1010.453247070313	-1099.645751953125	-287.3023071289063	1509.3037109375	-729.8905639648439	-375.5953063964844	1347.349365234375	-598.9324951171876	-343.0778503417969	1308.386840820313	-596.4462280273439	-387.2594299316407	1287.49951171875	-563.0580444335939	-382.6660766601563	1226.241333007813	-545.3032836914064	-448.8850708007814	1211.899169921875	-601.3135375976564	-300.9573974609376	1018.908874511719	-712.1663208007814	-281.7315673828126	988.1041259765627	-648.0361328125001	-238.3388366699219	1001.545349121094	-749.0538330078126	-206.3768005371094	1007.654296875	-819.3670654296877	-373.2372131347657	1081.130737304688	-924.9028320312502	-380.0913085937501	1049.708129882813	-952.4304199218752	-378.3278808593751	1051.250610351563	-895.832702636719	-321.1972656250001	806.8071899414065	-1122.90283203125	-294.7374877929688	726.6145629882814	-1124.1103515625	-247.445053100586	724.1593017578126	-1114.7744140625	-327.8714294433594	676.3281860351564	-1113.80810546875	-329.2750854492188	515.5461425781251	-1105.832153320313	-319.5481872558594	501.8809814453126	-985.3854980468752	-309.1737670898438	336.1430358886719	-1047.904418945313	-336.5256652832032	295.1425476074219	-1121.98095703125	-305.8963317871094	291.1564941406251	-1086.556030273438	-319.9331970214844	211.1518096923829	-1062.338989257813	-371.6587829589844	94.17947387695314	-1116.067749023438	-350.1864318847657	99.02091979980472	-1031.854248046875	-428.038543701172	47.28664016723634	-1069.111083984375	-211.745834350586	60.8563919067383	-1055.28662109375	-214.0503540039063	60.55454254150392	-1101.665893554688	-249.4086303710938	38.86673736572266	-1148.454711914063	-319.9726562500001	754.1342163085939	-742.6029663085939	-282.2885131835938	698.5908813476564	-734.5534667968751	-249.1544494628907	699.1129760742189	-739.5637817382814	-309.8302612304688	619.5203247070314	-748.8314208984376	-317.6600036621094	505.1041564941407	-752.9625244140626	-317.8960266113282	492.0797729492189	-875.9919433593752	-281.8855895996094	373.8410339355469	-769.0447387695315	-357.6736755371094	309.7978515625001	-720.8185424804689	-315.9162292480469	299.6484680175782	-736.5271606445314	-308.6584472656251	247.1723022460938	-758.6296997070314	-382.7709960937501	95.85640716552736	-737.2608032226564	-358.7391052246094	99.70796966552737	-818.763122558594	-434.4587402343751	48.9051971435547	-782.0166015625002	-223.6487579345704	62.95752334594728	-787.9846191406252	-218.1207275390626	61.51746749877931	-750.2042846679689	-256.6593933105469	39.85467147827149	-698.9731445312501	-204.7734069824219	1029.5703125	-1039.355224609375	nan	nan	nan	nan	nan	nan	
181	0.9	-157.6534118652344	1761.481079101563	-934.3458251953127	-297.7394409179688	1723.210571289063	-996.6245727539065	-323.8325805664063	1708.94091796875	-832.408630371094	-360.1148986816407	1538.170043945313	-929.1378173828127	-390.9038085937501	1234.807861328125	-933.6254882812502	-224.3093872070313	1489.243286132813	-923.157409667969	-259.5868530273438	1534.669067382813	-1105.980224609375	-337.9533691406251	1370.723876953125	-1257.23291015625	-305.2796020507813	1332.344116210938	-1254.044677734375	-349.8273925781251	1311.774169921875	-1291.425659179688	-348.2717285156251	1253.133178710938	-1308.46484375	-415.6658020019532	1242.461791992188	-1256.317626953125	-282.0761718750001	1032.718994140625	-1143.048828125	-248.7945098876954	1013.910705566406	-1200.817138671875	-230.828842163086	1010.475646972656	-1099.663696289063	-287.2530517578126	1509.291015625	-729.8269042968751	-375.5329589843751	1347.3193359375	-598.9238281250001	-343.0150756835938	1308.406372070313	-596.4125366210939	-387.2201538085939	1287.534423828125	-563.0909423828126	-382.5667724609376	1226.246948242188	-545.3081054687501	-448.8249511718751	1211.875366210938	-601.3142700195314	-300.8811340332032	1018.900207519531	-712.0443725585939	-281.6652526855469	988.1433105468752	-648.0576171875001	-238.4402008056641	1001.898071289063	-749.0592651367189	-206.311752319336	1008.015869140625	-819.469177246094	-373.0957641601563	1081.15185546875	-924.8681640625002	-379.9593200683594	1049.691650390625	-952.383483886719	-378.2790832519532	1051.251586914063	-895.8350830078127	-321.1508789062501	806.7673339843752	-1122.8388671875	-294.6949768066407	726.6024169921876	-1124.112182617188	-247.3870697021485	724.1972656250001	-1114.835571289063	-327.7968444824219	676.3582763671876	-1113.794067382813	-329.1823425292969	515.5092773437501	-1105.803466796875	-319.5569458007813	502.0151977539064	-985.4887695312502	-309.1320495605469	336.1188049316407	-1047.90625	-337.1148071289063	294.6155700683594	-1122.053466796875	-305.8722839355469	291.1719970703126	-1086.545166015625	-319.9415893554688	211.1138305664063	-1062.351318359375	-371.9790344238282	94.69992828369142	-1116.363647460938	-350.1464538574219	99.0817794799805	-1031.8232421875	-428.0294189453126	47.30157470703126	-1069.113403320313	-211.751937866211	60.8101043701172	-1055.273803710938	-214.0124053955079	60.53286743164064	-1101.658325195313	-248.9839935302735	39.28668594360352	-1148.381713867188	-319.9343872070313	754.1522216796876	-742.5431518554689	-282.2448425292969	698.5944824218751	-734.5106201171876	-249.0878295898438	699.0933837890626	-739.5494995117189	-309.6739807128907	619.2940673828126	-748.6901855468751	-317.5700378417969	505.074188232422	-752.8446044921876	-317.8463439941407	492.0771789550782	-875.9690551757815	-281.8217468261719	373.8182983398438	-769.044372558594	-357.6383972167969	309.8002624511719	-720.8223266601564	-315.8688659667969	299.5581665039063	-736.4464111328126	-308.6499633789063	247.2348937988282	-758.6056518554689	-382.7474975585938	95.87581634521486	-737.2463378906251	-358.6816101074219	99.66741180419925	-818.759460449219	-434.4500427246095	48.93550491333009	-782.0208740234377	-223.6964874267579	62.95915985107423	-788.015808105469	-218.1346282958985	61.53224563598634	-750.2277832031251	-256.6996459960938	39.91499328613282	-698.9309082031251	-204.6264801025391	1029.599365234375	-1039.348510742188	nan	nan	nan	nan	nan	nan	
182	0.905	-157.5762329101563	1761.483520507813	-934.170593261719	-297.5733032226563	1723.203979492188	-996.6069335937502	-323.7942810058594	1708.915649414063	-832.4448852539065	-360.0379943847657	1538.135009765625	-929.135925292969	-390.7913208007814	1234.812255859375	-933.6356201171877	-224.1848449707032	1489.253295898438	-923.1641845703127	-259.5722961425782	1534.676147460938	-1105.935546875	-337.8820800781251	1370.720336914063	-1257.178955078125	-305.1583251953126	1332.363037109375	-1254.033447265625	-349.6528320312501	1311.818481445313	-1291.40625	-348.2233581542969	1253.1513671875	-1308.429809570313	-415.5433959960939	1242.31884765625	-1256.25732421875	-281.9746093750001	1032.643920898438	-1143.03857421875	-248.7519836425782	1013.8203125	-1200.77783203125	-230.8077239990235	1010.448669433594	-1099.586303710938	-287.1799316406251	1509.35595703125	-729.7993164062501	-375.5275573730469	1347.326293945313	-598.9135131835939	-342.9536437988282	1308.439331054688	-596.2870483398439	-387.160858154297	1287.530151367188	-563.0782470703126	-382.4983825683594	1226.251953125	-545.2475585937501	-448.7649536132814	1211.86328125	-601.2694091796876	-300.7970886230469	1018.890075683594	-711.9984741210939	-281.5906066894532	988.081726074219	-647.9486083984376	-238.354721069336	1001.834777832031	-749.0742797851564	-206.0923156738282	1008.064208984375	-819.4698486328127	-373.0226745605469	1081.109619140625	-924.8232421875002	-379.8652038574219	1049.855834960938	-952.335144042969	-378.2533264160157	1051.276123046875	-895.7607421875002	-321.1705627441407	806.753601074219	-1122.798095703125	-294.7059020996094	726.6041870117189	-1124.043212890625	-247.464828491211	724.1905517578126	-1114.797119140625	-327.8001098632813	676.3671264648439	-1113.758056640625	-329.0897216796876	515.5221557617189	-1105.772583007813	-319.3224487304688	501.6979064941407	-985.2813110351565	-309.0326232910157	336.1794128417969	-1047.884033203125	-336.4113464355469	295.2128295898438	-1121.935180664063	-305.8820190429688	291.1771240234376	-1086.550903320313	-319.9421997070313	211.131088256836	-1062.34326171875	-371.9571533203126	94.6770706176758	-1116.329956054688	-350.1360473632813	98.98276519775393	-1031.875	-427.975067138672	47.38783645629884	-1069.129516601563	-211.6704711914063	60.6988983154297	-1055.24951171875	-214.1571960449219	60.73824691772462	-1101.783447265625	-249.2993621826172	38.96360778808594	-1148.225463867188	-319.8715209960938	754.1302490234376	-742.4872436523439	-282.3341979980469	698.3903808593751	-734.3962402343751	-249.0441894531251	699.0770874023439	-739.4733276367189	-309.6352539062501	619.5867309570314	-748.8432617187501	-317.4385681152344	504.9273071289064	-752.8178710937501	-317.8344421386719	492.0797424316407	-875.9615478515627	-281.7718505859376	373.7364807128907	-769.0606689453127	-357.6059875488282	309.7839965820313	-720.8433227539064	-315.8307189941407	299.5501403808594	-736.4624633789064	-308.5952758789063	247.1345977783204	-758.5924682617189	-382.7460632324219	95.87441253662111	-737.2578125000001	-358.6698913574219	99.65573883056643	-818.7476806640627	-434.4583435058595	48.9322853088379	-782.0145263671877	-223.6002197265626	62.97204971313478	-788.0173339843752	-218.0074157714844	61.25161743164064	-749.8579101562501	-256.7167968750001	39.85403442382813	-698.9392700195314	-204.726791381836	1029.547485351563	-1039.278198242188	nan	nan	nan	nan	nan	nan	
